<svg width="21" height="20" viewBox="0 0 21 20" fill="none" xmlns="http://www.w3.org/2000/svg">
<g id="icons8:phone">
<path id="Vector" d="M5.91 1.875C5.58312 1.875 5.26 1.99375 4.99125 2.20625L4.95375 2.22687L4.93375 2.24562L2.98062 4.25813L2.99937 4.27688C2.3975 4.83437 2.21 5.66687 2.47187 6.38688C2.47312 6.39 2.47062 6.40187 2.47187 6.40562C3.00125 7.92312 4.3575 10.8494 7.00312 13.4956C9.65937 16.1519 12.6263 17.4519 14.0931 18.0269H14.1119C14.4798 18.1482 14.8728 18.1723 15.2528 18.097C15.6328 18.0217 15.9868 17.8494 16.2806 17.5969L16.2994 17.5781L16.3194 17.5581L18.2544 15.625C18.7731 15.1062 18.7731 14.21 18.2544 13.6912L15.7156 11.1525L15.6956 11.1131C15.1769 10.5944 14.2612 10.5944 13.7425 11.1131L13.7238 11.1331L12.4925 12.3644C11.5543 11.9136 10.6914 11.3206 9.93438 10.6062C8.91188 9.62937 8.38812 8.50625 8.19687 8.06625L9.44562 6.81625C9.97188 6.29 9.98 5.41875 9.42688 4.9025L9.44562 4.8825L9.3875 4.82437L6.8875 2.24562L6.86688 2.22687L6.82812 2.20625C6.56806 1.99527 6.24424 1.87853 5.90937 1.875H5.91ZM5.91 3.125C5.95625 3.125 6.00187 3.1475 6.0475 3.18375L8.5475 5.74188L8.58625 5.78125L8.605 5.8C8.60063 5.79687 8.6425 5.86063 8.56625 5.9375L7.00375 7.5L6.71 7.77375L6.8475 8.16375C6.8475 8.16375 7.56625 10.0844 9.07438 11.5238L9.21 11.6406C10.6625 12.9669 12.375 13.6906 12.375 13.6906L12.7656 13.8669L13.0594 13.5744L14.6219 12.0119C14.7281 11.9056 14.7094 11.9056 14.8156 12.0119L17.375 14.57C17.4812 14.6763 17.4812 14.6387 17.375 14.745L15.4606 16.6594C15.1731 16.9069 14.8687 16.9569 14.5044 16.8356C13.0869 16.2794 10.3356 15.0688 7.8825 12.6169C5.41062 10.1438 4.11875 7.3375 3.645 5.97687C3.54937 5.7225 3.61812 5.34562 3.84 5.15625L3.85875 5.1375L3.87875 5.11688L5.77375 3.18375C5.81094 3.14928 5.85879 3.12856 5.90937 3.125H5.91Z" fill="#202C38"/>
</g>
</svg>
