<svg width="24" height="25" viewBox="0 0 24 25" fill="none" xmlns="http://www.w3.org/2000/svg">
<path d="M4.98298 7.20779C6.19138 7.20779 7.17098 6.22819 7.17098 5.01979C7.17098 3.81139 6.19138 2.83179 4.98298 2.83179C3.77458 2.83179 2.79498 3.81139 2.79498 5.01979C2.79498 6.22819 3.77458 7.20779 4.98298 7.20779Z" fill="#AEBAC6"/>
<path d="M9.23697 8.86567V21.0047H13.006V15.0017C13.006 13.4177 13.304 11.8837 15.268 11.8837C17.205 11.8837 17.229 13.6947 17.229 15.1017V21.0057H21V14.3487C21 11.0787 20.296 8.56567 16.474 8.56567C14.639 8.56567 13.409 9.57267 12.906 10.5257H12.855V8.86567H9.23697ZM3.09497 8.86567H6.86997V21.0047H3.09497V8.86567Z" fill="#AEBAC6"/>
</svg>
