<svg width="21" height="20" viewBox="0 0 21 20" fill="none" xmlns="http://www.w3.org/2000/svg">
<g id="mail" opacity="0.6">
<path id="Vector (Stroke)" fill-rule="evenodd" clip-rule="evenodd" d="M2.8989 4.06548C3.36774 3.59664 4.00363 3.33325 4.66667 3.33325H16.3333C16.9964 3.33325 17.6323 3.59664 18.1011 4.06548C18.5699 4.53433 18.8333 5.17021 18.8333 5.83325V6.65365C18.8335 6.66177 18.8335 6.66988 18.8333 6.67798V14.1666C18.8333 14.8296 18.5699 15.4655 18.1011 15.9344C17.6323 16.4032 16.9964 16.6666 16.3333 16.6666H4.66667C4.00363 16.6666 3.36774 16.4032 2.8989 15.9344C2.43006 15.4655 2.16667 14.8296 2.16667 14.1666V6.67798C2.16655 6.66988 2.16655 6.66177 2.16667 6.65366V5.83325C2.16667 5.17021 2.43006 4.53433 2.8989 4.06548ZM3.83333 8.22368V14.1666C3.83333 14.3876 3.92113 14.5996 4.07741 14.7558C4.23369 14.9121 4.44565 14.9999 4.66667 14.9999H16.3333C16.5543 14.9999 16.7663 14.9121 16.9226 14.7558C17.0789 14.5996 17.1667 14.3876 17.1667 14.1666V8.22368L11.8875 11.7431C11.8874 11.7432 11.8873 11.7432 11.8872 11.7433C11.4765 12.0173 10.9938 12.1635 10.5 12.1635C10.0062 12.1635 9.52352 12.0173 9.11275 11.7433C9.11267 11.7432 9.11258 11.7432 9.1125 11.7431L3.83333 8.22368ZM17.1667 6.2206L10.9628 10.3565L10.9625 10.3567C10.8256 10.4481 10.6646 10.4968 10.5 10.4968C10.3354 10.4968 10.1744 10.4481 10.0375 10.3567L10.0373 10.3565L3.83333 6.2206V5.83325C3.83333 5.61224 3.92113 5.40028 4.07741 5.244C4.23369 5.08772 4.44565 4.99992 4.66667 4.99992H16.3333C16.5543 4.99992 16.7663 5.08772 16.9226 5.244C17.0789 5.40028 17.1667 5.61224 17.1667 5.83325V6.2206Z" fill="#202C38"/>
</g>
</svg>
