<svg width="24" height="25" viewBox="0 0 24 25" fill="none" xmlns="http://www.w3.org/2000/svg">
<g opacity="0.3">
<path d="M18.9297 8.44824C19.7109 7.8623 20.4141 7.15918 20.9609 6.33887C20.2578 6.65137 19.4375 6.88574 18.6172 6.96387C19.4766 6.45605 20.1016 5.6748 20.4141 4.69824C19.6328 5.16699 18.7344 5.51855 17.8359 5.71387C17.0547 4.89355 16 4.4248 14.8281 4.4248C12.5625 4.4248 10.7266 6.26074 10.7266 8.52637C10.7266 8.83887 10.7656 9.15137 10.8438 9.46387C7.44531 9.26855 4.39844 7.62793 2.36719 5.16699C2.01562 5.75293 1.82031 6.45605 1.82031 7.2373C1.82031 8.64355 2.52344 9.89355 3.65625 10.6357C2.99219 10.5967 2.32812 10.4404 1.78125 10.1279V10.167C1.78125 12.1592 3.1875 13.7998 5.0625 14.1904C4.75 14.2686 4.35938 14.3467 4.00781 14.3467C3.73438 14.3467 3.5 14.3076 3.22656 14.2686C3.73438 15.9092 5.25781 17.0811 7.05469 17.1201C5.64844 18.2139 3.89062 18.8779 1.97656 18.8779C1.625 18.8779 1.3125 18.8389 1 18.7998C2.79688 19.9717 4.94531 20.6357 7.28906 20.6357C14.8281 20.6357 18.9297 14.4248 18.9297 8.99512C18.9297 8.7998 18.9297 8.64355 18.9297 8.44824Z" fill="#071B31"/>
</g>
</svg>
