<svg width="24" height="25" viewBox="0 0 24 25" fill="none" xmlns="http://www.w3.org/2000/svg">
<path d="M22.4453 7.39355C22.2109 6.45605 21.4688 5.71387 20.5703 5.47949C18.8906 5.01074 12.25 5.01074 12.25 5.01074C12.25 5.01074 5.57031 5.01074 3.89062 5.47949C2.99219 5.71387 2.25 6.45605 2.01562 7.39355C1.54688 9.03418 1.54688 12.5498 1.54688 12.5498C1.54688 12.5498 1.54688 16.0264 2.01562 17.7061C2.25 18.6436 2.99219 19.3467 3.89062 19.5811C5.57031 20.0107 12.25 20.0107 12.25 20.0107C12.25 20.0107 18.8906 20.0107 20.5703 19.5811C21.4688 19.3467 22.2109 18.6436 22.4453 17.7061C22.9141 16.0264 22.9141 12.5498 22.9141 12.5498C22.9141 12.5498 22.9141 9.03418 22.4453 7.39355ZM10.0625 15.7139V9.38574L15.6094 12.5498L10.0625 15.7139Z" fill="#AEBAC6"/>
</svg>
