<svg width="215" height="63" viewBox="0 0 215 63" fill="none" xmlns="http://www.w3.org/2000/svg">
<path d="M213.747 55.3467C213.747 58.6508 211.014 61.3271 207.635 61.3271H7.63536C4.25764 61.3271 1.51593 58.6508 1.51593 55.3467V7.65496C1.51593 4.35246 4.25764 1.66675 7.63536 1.66675H207.634C211.014 1.66675 213.745 4.35246 213.745 7.65496L213.747 55.3467Z" fill="#202C38"/>
<path d="M48.2174 31.1634C48.1713 26.1677 52.4127 23.7373 52.6066 23.6242C50.2045 20.2095 46.4814 19.743 45.173 19.7058C42.046 19.3849 39.0127 21.5301 37.4198 21.5301C35.7951 21.5301 33.3421 19.7368 30.6984 19.7895C27.2963 19.8406 24.1137 21.7611 22.3681 24.7433C18.7658 30.8239 21.4524 39.7597 24.9038 44.6747C26.6302 47.0819 28.6476 49.7696 31.2882 49.675C33.8715 49.5712 34.8365 48.0692 37.954 48.0692C41.0428 48.0692 41.949 49.675 44.642 49.6146C47.4145 49.5712 49.1601 47.1966 50.8261 44.7677C52.8213 42.0087 53.6225 39.2916 53.6543 39.1521C53.5891 39.1304 48.2698 37.151 48.2174 31.1634Z" fill="white"/>
<path d="M43.1302 16.4725C44.5196 14.7783 45.4703 12.4735 45.2064 10.1345C43.1954 10.2213 40.6804 11.4908 39.2321 13.1477C37.9508 14.6078 36.8062 17.001 37.1019 19.2516C39.3609 19.4159 41.6803 18.1403 43.1302 16.4725Z" fill="white"/>
<path d="M85.6011 49.3337H81.9907L80.0131 43.2748H73.1391L71.2552 49.3337H67.7403L74.5508 28.7063H78.7572L85.6011 49.3337ZM79.417 40.7328L77.6285 35.3465C77.4393 34.7963 77.0848 33.5005 76.5618 31.4607H76.4982C76.2899 32.338 75.9545 33.6338 75.4935 35.3465L73.7368 40.7328H79.417Z" fill="white"/>
<path d="M103.119 41.7139C103.119 44.2435 102.418 46.243 101.016 47.7108C99.7598 49.0175 98.2002 49.67 96.3387 49.67C94.3292 49.67 92.8857 48.9663 92.0066 47.5589H91.943V55.3942H88.5537V39.3563C88.5537 37.766 88.5108 36.1339 88.4281 34.4599H91.4089L91.598 36.8174H91.6616C92.7919 35.0411 94.5073 34.1545 96.8092 34.1545C98.6088 34.1545 100.111 34.8474 101.313 36.2346C102.518 37.6234 103.119 39.4493 103.119 41.7139ZM99.666 41.8348C99.666 40.3871 99.3321 39.1936 98.6613 38.2543C97.9284 37.2747 96.9443 36.7849 95.7107 36.7849C94.8745 36.7849 94.1146 37.0577 93.4358 37.5955C92.7554 38.138 92.3102 38.8464 92.102 39.7237C91.9971 40.1329 91.9446 40.4677 91.9446 40.7312V43.2112C91.9446 44.2931 92.2848 45.206 92.9652 45.9516C93.6456 46.6971 94.5295 47.0691 95.6169 47.0691C96.8935 47.0691 97.8871 46.5886 98.5977 45.6307C99.3099 44.6713 99.666 43.4065 99.666 41.8348Z" fill="white"/>
<path d="M120.657 41.7139C120.657 44.2435 119.956 46.243 118.552 47.7108C117.298 49.0175 115.738 49.67 113.876 49.67C111.867 49.67 110.424 48.9663 109.546 47.5589H109.482V55.3942H106.093V39.3563C106.093 37.766 106.05 36.1339 105.967 34.4599H108.948L109.137 36.8174H109.201C110.33 35.0411 112.045 34.1545 114.349 34.1545C116.147 34.1545 117.649 34.8474 118.854 36.2346C120.054 37.6234 120.657 39.4493 120.657 41.7139ZM117.204 41.8348C117.204 40.3871 116.868 39.1936 116.197 38.2543C115.465 37.2747 114.484 36.7849 113.248 36.7849C112.411 36.7849 111.652 37.0577 110.972 37.5955C110.292 38.138 109.848 38.8464 109.64 39.7237C109.536 40.1329 109.482 40.4677 109.482 40.7312V43.2112C109.482 44.2931 109.823 45.206 110.5 45.9516C111.18 46.6956 112.064 47.0691 113.155 47.0691C114.431 47.0691 115.425 46.5886 116.135 45.6307C116.848 44.6713 117.204 43.4065 117.204 41.8348Z" fill="white"/>
<path d="M140.276 43.5486C140.276 45.3032 139.651 46.7308 138.397 47.8328C137.019 49.0372 135.1 49.6386 132.634 49.6386C130.358 49.6386 128.533 49.2108 127.151 48.3536L127.937 45.5993C129.425 46.4766 131.057 46.9168 132.836 46.9168C134.113 46.9168 135.106 46.6347 135.82 46.0736C136.531 45.5125 136.885 44.7592 136.885 43.8199C136.885 42.9829 136.593 42.2776 136.006 41.7057C135.423 41.1337 134.448 40.6021 133.087 40.1107C129.383 38.7638 127.533 36.7906 127.533 34.1959C127.533 32.5002 128.181 31.1099 129.48 30.028C130.774 28.9445 132.501 28.4036 134.66 28.4036C136.585 28.4036 138.184 28.7306 139.461 29.3832L138.613 32.0771C137.421 31.4447 136.073 31.1285 134.564 31.1285C133.372 31.1285 132.44 31.4152 131.773 31.9856C131.208 32.4956 130.925 33.1171 130.925 33.8534C130.925 34.6687 131.248 35.3429 131.897 35.873C132.461 36.3628 133.486 36.8929 134.974 37.4649C136.795 38.1794 138.132 39.0149 138.992 39.9728C139.848 40.9276 140.276 42.1226 140.276 43.5486Z" fill="white"/>
<path d="M151.488 36.9414H147.752V44.1629C147.752 45.9996 148.41 46.9172 149.73 46.9172C150.335 46.9172 150.838 46.8661 151.235 46.7638L151.329 49.2732C150.661 49.5166 149.782 49.639 148.693 49.639C147.355 49.639 146.309 49.2407 145.554 48.4455C144.802 47.6488 144.423 46.3127 144.423 44.4357V36.9383H142.198V34.4583H144.423V31.735L147.752 30.7554V34.4583H151.488V36.9414Z" fill="white"/>
<path d="M168.344 41.7738C168.344 44.06 167.673 45.9371 166.334 47.4049C164.93 48.9162 163.067 49.6695 160.745 49.6695C158.506 49.6695 156.724 48.9456 155.395 47.4979C154.066 46.0502 153.402 44.2228 153.402 42.0202C153.402 39.7154 154.085 37.8275 155.457 36.3596C156.826 34.8902 158.673 34.1555 160.996 34.1555C163.234 34.1555 165.035 34.8794 166.395 36.3286C167.695 37.7345 168.344 39.5495 168.344 41.7738ZM164.827 41.8807C164.827 40.509 164.527 39.3325 163.918 38.3514C163.207 37.1641 162.191 36.572 160.875 36.572C159.513 36.572 158.478 37.1656 157.767 38.3514C157.158 39.3341 156.858 40.5291 156.858 41.9427C156.858 43.3145 157.158 44.4909 157.767 45.4705C158.5 46.6578 159.524 47.2499 160.845 47.2499C162.139 47.2499 163.155 46.6454 163.888 45.4395C164.512 44.4398 164.827 43.2509 164.827 41.8807Z" fill="white"/>
<path d="M179.361 37.3661C179.026 37.3057 178.668 37.2747 178.293 37.2747C177.101 37.2747 176.179 37.7133 175.53 38.5922C174.966 39.3672 174.683 40.3468 174.683 41.5294V49.3337H171.295L171.327 39.144C171.327 37.4297 171.284 35.8688 171.2 34.4614H174.152L174.276 37.3072H174.369C174.727 36.3292 175.292 35.5418 176.064 34.9512C176.819 34.4196 177.635 34.1545 178.514 34.1545C178.827 34.1545 179.11 34.1762 179.361 34.215V37.3661Z" fill="white"/>
<path d="M194.516 41.198C194.516 41.7901 194.477 42.2892 194.392 42.6969H184.224C184.264 44.1663 184.755 45.29 185.7 46.065C186.557 46.7579 187.665 47.1051 189.025 47.1051C190.531 47.1051 191.904 46.871 193.14 46.4014L193.671 48.6954C192.227 49.3092 190.523 49.6145 188.556 49.6145C186.191 49.6145 184.334 48.9356 182.983 47.5794C181.635 46.2231 180.959 44.4019 180.959 42.1172C180.959 39.8743 181.587 38.0066 182.845 36.517C184.161 34.9267 185.94 34.1316 188.178 34.1316C190.377 34.1316 192.041 34.9267 193.171 36.517C194.067 37.7803 194.516 39.3427 194.516 41.198ZM191.284 40.3409C191.307 39.3613 191.086 38.515 190.626 37.8004C190.04 36.8813 189.138 36.4225 187.925 36.4225C186.817 36.4225 185.916 36.8704 185.228 37.7694C184.663 38.484 184.328 39.3411 184.224 40.3393H191.284V40.3409Z" fill="white"/>
<path d="M78.2996 16.011C78.2996 17.8354 77.7384 19.2087 76.6176 20.131C75.5795 20.9819 74.1042 21.4082 72.1934 21.4082C71.2459 21.4082 70.4351 21.3679 69.7563 21.2873V11.3192C70.6418 11.1797 71.5956 11.1084 72.6258 11.1084C74.446 11.1084 75.818 11.4943 76.7432 12.2662C77.7797 13.1389 78.2996 14.3866 78.2996 16.011ZM76.5429 16.056C76.5429 14.8733 76.2218 13.9666 75.5795 13.3342C74.9373 12.7033 73.9993 12.3871 72.7641 12.3871C72.2395 12.3871 71.7927 12.4212 71.4223 12.4925V20.0705C71.6274 20.1015 72.0026 20.1155 72.5479 20.1155C73.8229 20.1155 74.8069 19.7698 75.5 19.0785C76.1932 18.3872 76.5429 17.3797 76.5429 16.056Z" fill="white"/>
<path d="M87.6063 17.6104C87.6063 18.7341 87.2772 19.6548 86.6191 20.3771C85.9291 21.1195 85.015 21.49 83.8736 21.49C82.7735 21.49 81.8975 21.135 81.2441 20.422C80.5923 19.7106 80.2664 18.8131 80.2664 17.7313C80.2664 16.5998 80.6019 15.6713 81.2759 14.9506C81.95 14.2298 82.8561 13.8687 83.9976 13.8687C85.0977 13.8687 85.9816 14.2236 86.6509 14.9351C87.2868 15.6264 87.6063 16.5192 87.6063 17.6104ZM85.8782 17.6631C85.8782 16.9888 85.7288 16.4107 85.4315 15.9286C85.0818 15.3458 84.5842 15.0544 83.9372 15.0544C83.2679 15.0544 82.7592 15.3458 82.4094 15.9286C82.1106 16.4107 81.9627 16.9981 81.9627 17.6925C81.9627 18.3668 82.1121 18.9449 82.4094 19.4269C82.7703 20.0097 83.2727 20.3011 83.9213 20.3011C84.5572 20.3011 85.0563 20.0051 85.4156 19.4115C85.724 18.9201 85.8782 18.3373 85.8782 17.6631Z" fill="white"/>
<path d="M100.105 14.0117L97.7597 21.3184H96.2335L95.2622 18.1456C95.0158 17.3535 94.8155 16.5661 94.6597 15.7849H94.6295C94.4848 16.5878 94.2845 17.3737 94.027 18.1456L92.9952 21.3184H91.4516L89.2466 14.0117H90.9588L91.8061 17.4853C92.0112 18.3068 92.1797 19.0895 92.3148 19.8304H92.345C92.469 19.2197 92.6741 18.4416 92.9634 17.5008L94.027 14.0133H95.3846L96.4036 17.4264C96.65 18.2587 96.8503 19.0601 97.0046 19.832H97.0507C97.1635 19.0802 97.3336 18.2789 97.5594 17.4264L98.4687 14.0133H100.105V14.0117Z" fill="white"/>
<path d="M108.736 21.3249H107.07V17.1399C107.07 15.8503 106.568 15.2055 105.56 15.2055C105.065 15.2055 104.666 15.3822 104.356 15.7371C104.049 16.0921 103.894 16.5106 103.894 16.9895V21.3233H102.228V16.106C102.228 15.4643 102.207 14.7684 102.167 14.0151H103.631L103.709 15.1574H103.755C103.949 14.8025 104.239 14.5095 104.618 14.2755C105.07 14.0027 105.576 13.8647 106.129 13.8647C106.828 13.8647 107.41 14.0848 107.873 14.5266C108.448 15.0675 108.736 15.8751 108.736 16.9477V21.3249Z" fill="white"/>
<path d="M113.332 21.3229H111.667V10.6636H113.332V21.3229Z" fill="white"/>
<path d="M123.138 17.6104C123.138 18.7341 122.809 19.6548 122.15 20.3771C121.461 21.1195 120.545 21.49 119.405 21.49C118.303 21.49 117.427 21.135 116.776 20.422C116.124 19.7106 115.798 18.8131 115.798 17.7313C115.798 16.5998 116.133 15.6713 116.807 14.9506C117.481 14.2298 118.388 13.8687 119.527 13.8687C120.629 13.8687 121.511 14.2236 122.182 14.9351C122.818 15.6264 123.138 16.5192 123.138 17.6104ZM121.408 17.6631C121.408 16.9888 121.259 16.4107 120.961 15.9286C120.613 15.3458 120.114 15.0544 119.469 15.0544C118.798 15.0544 118.289 15.3458 117.941 15.9286C117.642 16.4107 117.494 16.9981 117.494 17.6925C117.494 18.3668 117.644 18.9449 117.941 19.4269C118.302 20.0097 118.804 20.3011 119.453 20.3011C120.089 20.3011 120.586 20.0051 120.945 19.4115C121.255 18.9201 121.408 18.3373 121.408 17.6631Z" fill="white"/>
<path d="M131.203 21.3241H129.707L129.583 20.4825H129.537C129.025 21.1536 128.296 21.49 127.348 21.49C126.641 21.49 126.068 21.2683 125.638 20.8281C125.247 20.4282 125.051 19.9307 125.051 19.3401C125.051 18.4474 125.433 17.7669 126.2 17.2957C126.967 16.8245 128.044 16.5936 129.432 16.6044V16.468C129.432 15.5055 128.914 15.025 127.876 15.025C127.137 15.025 126.485 15.2063 125.922 15.5659L125.584 14.4995C126.28 14.0795 127.14 13.8687 128.154 13.8687C130.113 13.8687 131.095 14.8762 131.095 16.8912V19.5819C131.095 20.312 131.132 20.8932 131.203 21.3241ZM129.474 18.8131V17.6863C127.636 17.6553 126.717 18.1467 126.717 19.1588C126.717 19.5401 126.822 19.8253 127.037 20.0159C127.251 20.2066 127.525 20.3011 127.85 20.3011C128.216 20.3011 128.558 20.188 128.87 19.9633C129.183 19.7369 129.375 19.4502 129.447 19.0983C129.464 19.0193 129.474 18.9232 129.474 18.8131Z" fill="white"/>
<path d="M140.672 21.3229H139.193L139.115 20.1496H139.069C138.597 21.0424 137.793 21.4888 136.662 21.4888C135.759 21.4888 135.007 21.1431 134.411 20.4518C133.815 19.7605 133.518 18.8631 133.518 17.761C133.518 16.5784 133.841 15.6205 134.489 14.8889C135.117 14.2069 135.887 13.8659 136.802 13.8659C137.809 13.8659 138.513 14.196 138.913 14.8579H138.945V10.6636H140.613V19.3544C140.613 20.0659 140.632 20.7215 140.672 21.3229ZM138.945 18.2415V17.0232C138.945 16.8124 138.929 16.6419 138.899 16.5117C138.805 16.1211 138.603 15.7925 138.297 15.5275C137.987 15.2624 137.613 15.1291 137.182 15.1291C136.561 15.1291 136.074 15.3694 135.717 15.8514C135.362 16.3335 135.182 16.9488 135.182 17.7006C135.182 18.4229 135.352 19.0088 135.694 19.4598C136.055 19.9403 136.542 20.1806 137.15 20.1806C137.697 20.1806 138.135 19.9806 138.467 19.5792C138.788 19.2087 138.945 18.7623 138.945 18.2415Z" fill="white"/>
<path d="M154.918 17.6104C154.918 18.7341 154.589 19.6548 153.931 20.3771C153.241 21.1195 152.328 21.49 151.185 21.49C150.087 21.49 149.211 21.135 148.556 20.422C147.904 19.7106 147.578 18.8131 147.578 17.7313C147.578 16.5998 147.914 15.6713 148.588 14.9506C149.262 14.2298 150.168 13.8687 151.311 13.8687C152.409 13.8687 153.295 14.2236 153.963 14.9351C154.599 15.6264 154.918 16.5192 154.918 17.6104ZM153.192 17.6631C153.192 16.9888 153.042 16.4107 152.745 15.9286C152.394 15.3458 151.898 15.0544 151.249 15.0544C150.581 15.0544 150.073 15.3458 149.721 15.9286C149.422 16.4107 149.275 16.9981 149.275 17.6925C149.275 18.3668 149.424 18.9449 149.721 19.4269C150.082 20.0097 150.584 20.3011 151.233 20.3011C151.869 20.3011 152.37 20.0051 152.729 19.4115C153.036 18.9201 153.192 18.3373 153.192 17.6631Z" fill="white"/>
<path d="M163.879 21.3249H162.215V17.1399C162.215 15.8503 161.712 15.2055 160.703 15.2055C160.208 15.2055 159.809 15.3822 159.501 15.7371C159.193 16.0921 159.038 16.5106 159.038 16.9895V21.3233H157.371V16.106C157.371 15.4643 157.352 14.7684 157.312 14.0151H158.774L158.852 15.1574H158.898C159.094 14.8025 159.383 14.5095 159.762 14.2755C160.215 14.0027 160.719 13.8647 161.274 13.8647C161.971 13.8647 162.553 14.0848 163.016 14.5266C163.593 15.0675 163.879 15.8751 163.879 16.9477V21.3249Z" fill="white"/>
<path d="M175.089 15.2298H173.254V18.7793C173.254 19.6814 173.58 20.1325 174.225 20.1325C174.524 20.1325 174.772 20.1077 174.968 20.0565L175.011 21.2888C174.682 21.4097 174.249 21.4701 173.717 21.4701C173.059 21.4701 172.547 21.2748 172.176 20.8842C171.804 20.4936 171.62 19.8364 171.62 18.9142V15.2298H170.525V14.0131H171.62V12.6739L173.253 12.1934V14.0115H175.087V15.2298H175.089Z" fill="white"/>
<path d="M183.913 21.3229H182.246V17.1689C182.246 15.8592 181.743 15.2035 180.737 15.2035C179.964 15.2035 179.436 15.5833 179.147 16.3428C179.098 16.5024 179.069 16.6977 179.069 16.9271V21.3214H177.405V10.6636H179.069V15.0671H179.101C179.626 14.2658 180.378 13.8659 181.352 13.8659C182.042 13.8659 182.613 14.086 183.066 14.5277C183.63 15.078 183.913 15.8964 183.913 16.9783V21.3229Z" fill="white"/>
<path d="M193.004 17.3276C193.004 17.619 192.982 17.8639 192.942 18.0639H187.946C187.968 18.7862 188.206 19.3364 188.669 19.7177C189.092 20.0587 189.637 20.2292 190.305 20.2292C191.044 20.2292 191.718 20.1145 192.325 19.8836L192.586 21.012C191.876 21.3127 191.039 21.463 190.071 21.463C188.911 21.463 187.997 21.1298 187.335 20.4633C186.671 19.7968 186.342 18.9024 186.342 17.7802C186.342 16.6782 186.649 15.7606 187.267 15.029C187.912 14.2478 188.785 13.8572 189.887 13.8572C190.965 13.8572 191.783 14.2478 192.337 15.029C192.783 15.649 193.004 16.4162 193.004 17.3276ZM191.415 16.9076C191.427 16.4255 191.318 16.0101 191.092 15.6598C190.803 15.2088 190.362 14.9825 189.766 14.9825C189.222 14.9825 188.779 15.2026 188.44 15.6443C188.164 15.9962 188 16.4162 187.946 16.9076H191.415Z" fill="white"/>
</svg>
