<svg width="215" height="63" viewBox="0 0 215 63" fill="none" xmlns="http://www.w3.org/2000/svg">
<path d="M206.383 62.5H7.93779C3.57399 62.5 0 59.0106 0 54.75V8.25C0 3.98944 3.57399 0.500003 7.93779 0.500003H206.383C210.746 0.500003 214.32 3.98944 214.32 8.25V54.75C214.32 59.0106 210.746 62.5 206.383 62.5Z" fill="#202C38"/>
<path d="M75.2773 16.3787C75.2773 17.6729 74.8805 18.7095 74.0986 19.4825C73.1996 20.399 72.0288 20.8601 70.5941 20.8601C69.2228 20.8601 68.052 20.3912 67.0915 19.467C66.129 18.5293 65.6488 17.3784 65.6488 16.0009C65.6488 14.6233 66.129 13.4724 67.0915 12.5424C68.052 11.6105 69.2228 11.1416 70.5941 11.1416C71.2767 11.1416 71.9276 11.2792 72.5487 11.5349C73.1679 11.7926 73.6719 12.1414 74.0371 12.5715L73.2076 13.3891C72.5706 12.6548 71.7034 12.2925 70.5941 12.2925C69.5939 12.2925 68.7267 12.6335 67.9905 13.3213C67.2622 14.011 66.897 14.9042 66.897 16.0009C66.897 17.0975 67.2622 17.9984 67.9905 18.6882C68.7267 19.3682 69.5939 19.717 70.5941 19.717C71.6557 19.717 72.5487 19.3682 73.2532 18.6804C73.7176 18.2251 73.9815 17.5974 74.051 16.7952H70.5941V15.6754H75.2059C75.2615 15.9175 75.2773 16.152 75.2773 16.3787Z" fill="white" stroke="white" stroke-width="0.16" stroke-miterlimit="10"/>
<path d="M82.5955 12.4952H78.2634V15.4402H82.1688V16.5601H78.2634V19.5051H82.5955V20.6463H77.037V11.354H82.5955V12.4952Z" fill="white" stroke="white" stroke-width="0.16" stroke-miterlimit="10"/>
<path d="M87.7584 20.6465H86.5321V12.4954H83.8749V11.3542H90.4176V12.4954H87.7584V20.6465Z" fill="white" stroke="white" stroke-width="0.16" stroke-miterlimit="10"/>
<path d="M95.1521 20.6463V11.354H96.3765V20.6463H95.1521Z" fill="white" stroke="white" stroke-width="0.16" stroke-miterlimit="10"/>
<path d="M101.804 20.6465H100.588V12.4954H97.9206V11.3542H104.471V12.4954H101.804V20.6465Z" fill="white" stroke="white" stroke-width="0.16" stroke-miterlimit="10"/>
<path d="M116.858 19.4515C115.919 20.3912 114.756 20.8601 113.369 20.8601C111.974 20.8601 110.811 20.3912 109.873 19.4515C108.936 18.5138 108.47 17.3629 108.47 16.0009C108.47 14.6388 108.936 13.4879 109.873 12.5502C110.811 11.6105 111.974 11.1416 113.369 11.1416C114.749 11.1416 115.911 11.6105 116.85 12.5579C117.795 13.5034 118.261 14.6465 118.261 16.0009C118.261 17.3629 117.795 18.5138 116.858 19.4515ZM110.78 18.6727C111.486 19.3682 112.345 19.717 113.369 19.717C114.385 19.717 115.253 19.3682 115.951 18.6727C116.656 17.9771 117.013 17.0839 117.013 16.0009C117.013 14.9178 116.656 14.0246 115.951 13.329C115.253 12.6335 114.385 12.2847 113.369 12.2847C112.345 12.2847 111.486 12.6335 110.78 13.329C110.075 14.0246 109.718 14.9178 109.718 16.0009C109.718 17.0839 110.075 17.9771 110.78 18.6727Z" fill="white" stroke="white" stroke-width="0.16" stroke-miterlimit="10"/>
<path d="M119.982 20.6463V11.354H121.47L126.098 18.5809H126.152L126.098 16.7945V11.354H127.323V20.6463H126.045L121.199 13.0629H121.145L121.199 14.857V20.6463H119.982Z" fill="white" stroke="white" stroke-width="0.16" stroke-miterlimit="10"/>
<path d="M108.168 34.2163C104.439 34.2163 101.393 36.9869 101.393 40.8096C101.393 44.6013 104.439 47.401 108.168 47.401C111.905 47.401 114.951 44.6013 114.951 40.8096C114.951 36.9869 111.905 34.2163 108.168 34.2163ZM108.168 44.8048C106.122 44.8048 104.362 43.1559 104.362 40.8096C104.362 38.4323 106.122 36.8126 108.168 36.8126C110.214 36.8126 111.982 38.4323 111.982 40.8096C111.982 43.1559 110.214 44.8048 108.168 44.8048ZM93.3858 34.2163C89.6491 34.2163 86.6109 36.9869 86.6109 40.8096C86.6109 44.6013 89.6491 47.401 93.3858 47.401C97.1205 47.401 100.161 44.6013 100.161 40.8096C100.161 36.9869 97.1205 34.2163 93.3858 34.2163ZM93.3858 44.8048C91.3379 44.8048 89.5717 43.1559 89.5717 40.8096C89.5717 38.4323 91.3379 36.8126 93.3858 36.8126C95.4318 36.8126 97.192 38.4323 97.192 40.8096C97.192 43.1559 95.4318 44.8048 93.3858 44.8048ZM75.7957 36.2371V39.0388H82.648C82.4475 40.6043 81.9117 41.7551 81.0902 42.5573C80.09 43.526 78.5322 44.6013 75.7957 44.6013C71.5787 44.6013 68.2766 41.2785 68.2766 37.1613C68.2766 33.0441 71.5787 29.7213 75.7957 29.7213C78.0758 29.7213 79.7348 30.5913 80.9592 31.7189L82.9814 29.7446C81.2688 28.1481 78.9906 26.9216 75.7957 26.9216C70.013 26.9216 65.1531 31.5155 65.1531 37.1613C65.1531 42.8072 70.013 47.401 75.7957 47.401C78.9212 47.401 81.2688 46.4013 83.1143 44.5258C85.0055 42.6793 85.5949 40.0831 85.5949 37.9867C85.5949 37.3357 85.5393 36.737 85.4401 36.2371H75.7957ZM147.724 38.4091C147.166 36.9346 145.446 34.2163 141.941 34.2163C138.468 34.2163 135.577 36.8881 135.577 40.8096C135.577 44.5025 138.439 47.401 142.275 47.401C145.376 47.401 147.166 45.5546 147.903 44.4793L145.601 42.9816C144.833 44.0782 143.787 44.8048 142.275 44.8048C140.772 44.8048 139.695 44.1324 139.004 42.8072L148.036 39.1589L147.724 38.4091ZM138.516 40.6043C138.439 38.0623 140.538 36.7603 142.042 36.7603C143.221 36.7603 144.221 37.3357 144.555 38.1591L138.516 40.6043ZM131.176 46.9999H134.144V27.625H131.176V46.9999ZM126.314 35.6849H126.215C125.548 34.9138 124.276 34.2163 122.664 34.2163C119.283 34.2163 116.191 37.1148 116.191 40.8309C116.191 44.5258 119.283 47.401 122.664 47.401C124.276 47.401 125.548 46.6977 126.215 45.9033H126.314V46.8488C126.314 49.3695 124.935 50.7238 122.71 50.7238C120.896 50.7238 119.771 49.4451 119.307 48.3698L116.725 49.4218C117.469 51.1694 119.44 53.3201 122.71 53.3201C126.191 53.3201 129.128 51.3206 129.128 46.4555V34.6174H126.314V35.6849ZM122.918 44.8048C120.872 44.8048 119.16 43.1327 119.16 40.8309C119.16 38.5079 120.872 36.8126 122.918 36.8126C124.935 36.8126 126.524 38.5079 126.524 40.8309C126.524 43.1327 124.935 44.8048 122.918 44.8048ZM161.623 27.625H154.523V46.9999H157.483V39.6588H161.623C164.911 39.6588 168.136 37.3357 168.136 33.6409C168.136 29.948 164.903 27.625 161.623 27.625ZM161.7 36.9637H157.483V30.32H161.7C163.911 30.32 165.173 32.1122 165.173 33.6409C165.173 35.1405 163.911 36.9637 161.7 36.9637ZM180.003 34.1795C177.864 34.1795 175.639 35.1018 174.724 37.1458L177.352 38.2211C177.917 37.1458 178.957 36.7971 180.057 36.7971C181.593 36.7971 183.15 37.698 183.174 39.2887V39.4921C182.638 39.1899 181.491 38.7423 180.08 38.7423C177.251 38.7423 174.367 40.2633 174.367 43.1017C174.367 45.6979 176.685 47.37 179.291 47.37C181.283 47.37 182.382 46.4923 183.073 45.4713H183.174V46.9689H186.034V39.5367C186.034 36.1015 183.406 34.1795 180.003 34.1795ZM179.646 44.797C178.677 44.797 177.328 44.3281 177.328 43.1559C177.328 41.6563 179.011 41.0809 180.467 41.0809C181.771 41.0809 182.382 41.3618 183.174 41.7319C182.942 43.526 181.36 44.797 179.646 44.797ZM196.452 34.6038L193.049 43.0029H192.948L189.429 34.6038H186.236L191.523 46.3412L188.506 52.8725H191.6L199.746 34.6038H196.452ZM169.763 46.9999H172.732V27.625H169.763V46.9999Z" fill="white"/>
<path d="M16.5662 12.1847C16.0998 12.6614 15.83 13.4034 15.83 14.3644V48.6427C15.83 49.6037 16.0998 50.3458 16.5662 50.8224L16.6813 50.927L36.3551 31.7264V31.273L16.6813 12.0724L16.5662 12.1847Z" fill="url(#paint0_linear_4872_58534)"/>
<path d="M42.906 38.1299L36.3553 31.7264V31.2731L42.9139 24.8696L43.0608 24.9529L50.8279 29.2678C53.0446 30.4923 53.0446 32.5073 50.8279 33.7395L43.0608 38.0466L42.906 38.1299Z" fill="url(#paint1_linear_4872_58534)"/>
<path d="M43.0609 38.0473L36.3554 31.5005L16.5665 50.8232C17.3028 51.5788 18.5033 51.6699 19.8686 50.9143L43.0609 38.0473Z" fill="url(#paint2_linear_4872_58534)"/>
<path d="M43.0609 24.9532L19.8686 12.0863C18.5033 11.3384 17.3028 11.4294 16.5665 12.1851L36.3554 31.5L43.0609 24.9532Z" fill="url(#paint3_linear_4872_58534)"/>
<defs>
<linearGradient id="paint0_linear_4872_58534" x1="34.6083" y1="48.9997" x2="8.60303" y2="22.3643" gradientUnits="userSpaceOnUse">
<stop stop-color="#00A0FF"/>
<stop offset="0.0066" stop-color="#00A1FF"/>
<stop offset="0.2601" stop-color="#00BEFF"/>
<stop offset="0.5122" stop-color="#00D2FF"/>
<stop offset="0.7604" stop-color="#00DFFF"/>
<stop offset="1" stop-color="#00E3FF"/>
</linearGradient>
<linearGradient id="paint1_linear_4872_58534" x1="53.7143" y1="31.4976" x2="15.3004" y2="31.4976" gradientUnits="userSpaceOnUse">
<stop stop-color="#FFE000"/>
<stop offset="0.4087" stop-color="#FFBD00"/>
<stop offset="0.7754" stop-color="#FFA500"/>
<stop offset="1" stop-color="#FF9C00"/>
</linearGradient>
<linearGradient id="paint2_linear_4872_58534" x1="39.4147" y1="27.9416" x2="4.14941" y2="-8.17822" gradientUnits="userSpaceOnUse">
<stop stop-color="#FF3A44"/>
<stop offset="1" stop-color="#C31162"/>
</linearGradient>
<linearGradient id="paint3_linear_4872_58534" x1="11.5852" y1="62.2269" x2="27.3328" y2="46.0979" gradientUnits="userSpaceOnUse">
<stop stop-color="#32A071"/>
<stop offset="0.0685" stop-color="#2DA771"/>
<stop offset="0.4762" stop-color="#15CF74"/>
<stop offset="0.8009" stop-color="#06E775"/>
<stop offset="1" stop-color="#00F076"/>
</linearGradient>
</defs>
</svg>
